static_grf.mot
version=1
nRows=30
nColumns 19
inDegrees=yes
endheader
time	1_ground_force_vx	1_ground_force_vy	1_ground_force_vz	1_ground_force_px	1_ground_force_py	1_ground_force_pz	1_ground_torque_x	1_ground_torque_y	1_ground_torque_z	2_ground_force_vx	2_ground_force_vy	2_ground_force_vz	2_ground_force_px	2_ground_force_py	2_ground_force_pz	2_ground_torque_x	2_ground_torque_y	2_ground_torque_z
            0.005000	            5.400041	          257.153498	          -20.738823	           -0.285457	            0.006223	           -0.407587	            0.018587	            0.885144	           -0.071385	           -6.816188	          216.641750	           22.925994	           -0.236082	            0.005582	           -0.683909	            0.039907	           -1.268378	           -0.134225
            0.005500	            5.857737	          258.055928	          -20.965375	           -0.285461	            0.006223	           -0.407515	            0.021945	            0.966769	           -0.078544	           -6.770024	          216.826258	           22.879703	           -0.236260	            0.005580	           -0.683346	            0.039244	           -1.256869	           -0.132626
            0.006000	            5.765986	          258.416442	          -20.963602	           -0.284834	            0.006222	           -0.407309	            0.020717	            0.928480	           -0.075321	           -6.955930	          216.455930	           23.253893	           -0.235726	            0.005579	           -0.682563	            0.040815	           -1.270083	           -0.136445
            0.006500	            5.491221	          258.055464	          -20.872753	           -0.284955	            0.006223	           -0.407438	            0.019623	            0.922185	           -0.074591	           -6.817456	          217.009560	           23.068092	           -0.235794	            0.005581	           -0.683293	            0.041030	           -1.306031	           -0.138831
            0.007000	            5.536786	          258.956967	          -20.914858	           -0.285145	            0.006220	           -0.406845	            0.018750	            0.876933	           -0.070826	           -6.814318	          216.090332	           22.642454	           -0.235760	            0.005579	           -0.682834	            0.039239	           -1.244330	           -0.130384
            0.007500	            5.720241	          257.875605	          -20.965807	           -0.285539	            0.006224	           -0.407847	            0.020239	            0.912419	           -0.074182	           -6.915185	          218.114431	           22.978218	           -0.235825	            0.005585	           -0.684409	            0.038492	           -1.214106	           -0.127905
            0.008000	            5.582970	          258.956386	          -20.777404	           -0.285202	            0.006220	           -0.406891	            0.019534	            0.906042	           -0.072696	           -6.768653	          216.457611	           22.972245	           -0.236000	            0.005580	           -0.683263	            0.039414	           -1.260437	           -0.133768
            0.008500	            5.582970	          258.956386	          -20.777404	           -0.285064	            0.006220	           -0.406748	            0.019052	            0.883716	           -0.070905	           -6.817497	          217.009894	           22.974236	           -0.235828	            0.005581	           -0.683215	            0.038950	           -1.239840	           -0.131258
            0.009000	            5.674755	          258.415638	          -20.779951	           -0.285151	            0.006220	           -0.406918	            0.019775	            0.900523	           -0.072414	           -6.956759	          216.641410	           22.879125	           -0.235915	            0.005579	           -0.682867	            0.040330	           -1.255926	           -0.132636
            0.009500	            5.628229	          258.416808	          -21.054972	           -0.285071	            0.006221	           -0.407106	            0.020360	            0.934836	           -0.076167	           -7.095274	          216.088145	           22.971070	           -0.236448	            0.005576	           -0.682565	            0.040880	           -1.245016	           -0.132350
            0.010000	            5.858274	          258.235180	          -20.735323	           -0.285155	            0.006223	           -0.407449	            0.020662	            0.910770	           -0.073131	           -7.192317	          217.008708	           22.927467	           -0.235751	            0.005582	           -0.683468	            0.040468	           -1.221015	           -0.129003
            0.010500	            5.583330	          258.234931	          -20.688784	           -0.285140	            0.006221	           -0.407085	            0.018881	            0.873287	           -0.069964	           -7.004232	          216.825077	           22.973658	           -0.236093	            0.005580	           -0.683256	            0.039949	           -1.236678	           -0.131032
            0.011000	            5.812512	          258.415271	          -20.688580	           -0.285122	            0.006220	           -0.406899	            0.020810	            0.925178	           -0.074069	           -7.004294	          216.825579	           22.832874	           -0.235585	            0.005581	           -0.683172	            0.039249	           -1.214982	           -0.127944
            0.011500	            5.628669	          257.875391	          -20.919724	           -0.284993	            0.006222	           -0.407411	            0.018433	            0.844505	           -0.068509	           -6.957506	          216.826250	           22.692070	           -0.236261	            0.005579	           -0.683253	            0.040598	           -1.265205	           -0.132411
            0.012000	            5.949666	          258.596123	          -20.825717	           -0.284679	            0.006221	           -0.407027	            0.022576	            0.981263	           -0.079025	           -6.866341	          217.562178	           22.976227	           -0.235633	            0.005584	           -0.683851	            0.040086	           -1.270133	           -0.134136
            0.012500	            5.536950	          258.055670	          -20.918723	           -0.285305	            0.006221	           -0.407078	            0.020110	            0.937255	           -0.075977	           -7.097911	          216.824571	           23.020626	           -0.235940	            0.005580	           -0.683087	            0.038954	           -1.189954	           -0.126339
            0.013000	            5.491009	          258.596427	          -20.916291	           -0.285358	            0.006222	           -0.407199	            0.019400	            0.913620	           -0.073897	           -6.723777	          217.010065	           23.021124	           -0.236065	            0.005580	           -0.683212	            0.039897	           -1.287684	           -0.136602
            0.013500	            5.537520	          258.054686	          -20.689444	           -0.285098	            0.006222	           -0.407407	            0.019601	            0.913432	           -0.073234	           -6.957321	          216.824744	           23.114423	           -0.235827	            0.005582	           -0.683517	            0.039786	           -1.239935	           -0.132182
            0.014000	            5.812482	          257.334070	          -20.784930	           -0.285621	            0.006224	           -0.407841	            0.021585	            0.955626	           -0.077186	           -6.956759	          216.641410	           22.879125	           -0.235733	            0.005581	           -0.683211	            0.040876	           -1.272932	           -0.134432
            0.014500	            5.536804	          258.236101	          -20.963806	           -0.285352	            0.006222	           -0.407346	            0.019408	            0.905190	           -0.073484	           -6.817579	          217.010564	           22.786523	           -0.236194	            0.005581	           -0.683565	            0.038061	           -1.211530	           -0.127213
            0.015000	            5.674201	          258.957191	          -20.961056	           -0.284961	            0.006220	           -0.406774	            0.020235	            0.923484	           -0.074751	           -7.050438	          216.640904	           22.926093	           -0.235873	            0.005580	           -0.683051	            0.037659	           -1.157171	           -0.122458
            0.015500	            5.399601	          257.694915	          -20.874072	           -0.285121	            0.006222	           -0.407362	            0.018904	            0.902193	           -0.073080	           -7.005479	          217.192689	           23.162685	           -0.236158	            0.005581	           -0.683681	            0.040654	           -1.260396	           -0.134416
            0.016000	            5.628717	          258.235726	          -20.872322	           -0.285179	            0.006222	           -0.407254	            0.020643	            0.947052	           -0.076547	           -7.053782	          217.561836	           22.882450	           -0.236009	            0.005583	           -0.684026	            0.039339	           -1.213351	           -0.127616
            0.016500	            5.766229	          258.956618	          -20.823715	           -0.284843	            0.006219	           -0.406670	            0.022704	            1.019599	           -0.081990	           -7.003526	          216.640571	           23.066858	           -0.235989	            0.005580	           -0.683210	            0.041129	           -1.272236	           -0.135462
            0.017000	            5.491563	          258.054874	          -20.735186	           -0.285266	            0.006221	           -0.407055	            0.018393	            0.864295	           -0.069448	           -6.961391	          217.930288	           22.930653	           -0.236063	            0.005584	           -0.684361	            0.040523	           -1.268602	           -0.133483
            0.017500	            5.536900	          258.956771	          -20.869003	           -0.285227	            0.006219	           -0.406549	            0.018110	            0.846980	           -0.068257	           -6.913211	          217.562176	           22.929319	           -0.236301	            0.005582	           -0.684015	            0.042135	           -1.325995	           -0.139749
            0.018000	            5.857720	          258.776794	          -20.916428	           -0.284962	            0.006222	           -0.407231	            0.021333	            0.942449	           -0.076176	           -6.956032	          216.456767	           23.019252	           -0.236180	            0.005579	           -0.683087	            0.040003	           -1.244801	           -0.132379
            0.018500	            5.628196	          258.597044	          -21.054200	           -0.285400	            0.006222	           -0.407363	            0.020335	            0.934329	           -0.076070	           -6.958129	          217.010056	           22.786583	           -0.235992	            0.005582	           -0.683726	            0.040786	           -1.272032	           -0.133566
            0.019000	            5.583542	          257.693967	          -20.645247	           -0.285028	            0.006223	           -0.407469	            0.019065	            0.879898	           -0.070493	           -6.819532	          217.562682	           22.882351	           -0.235628	            0.005584	           -0.683851	            0.040315	           -1.286168	           -0.135274
            0.019500	            5.628573	          257.154722	          -21.014527	           -0.285260	            0.006224	           -0.407847	            0.019986	            0.913105	           -0.074618	           -6.865635	          217.377672	           23.069426	           -0.235800	            0.005583	           -0.683809	            0.040533	           -1.283359	           -0.136198
